<mxfile host="65bd71144e">
    <diagram id="U53" name="Style-Plain">
        <mxGraphModel dx="977" dy="583" grid="0" gridSize="10" guides="1" tooltips="1" connect="1" arrows="1" fold="1" page="1" pageScale="1" pageWidth="1169" pageHeight="827" background="#FFFAFA" math="0" shadow="0">
            <root>
                <mxCell id="page_root_U53"/>
                <mxCell id="node_root_U53" parent="page_root_U53"/>
                <mxCell id="1" value="1" style="whiteSpace=wrap;html=1;fillColor=#b0e3e6;strokeColor=#0e8088;fontColor=#000000;ellipse" parent="node_root_U53" vertex="1">
                    <mxGeometry x="10" y="20" width="100" height="160" as="geometry"/>
                </mxCell>
                <mxCell id="2" value="2" style="whiteSpace=wrap;html=1;fillColor=#b0e3e6;strokeColor=#0e8088;fontColor=#000000;ellipse" parent="node_root_U53" vertex="1">
                    <mxGeometry x="182" y="246" width="100" height="120" as="geometry"/>
                </mxCell>
                <mxCell id="3" value="3" style="whiteSpace=wrap;html=1;fillColor=#b0e3e6;strokeColor=#0e8088;fontColor=#000000;ellipse" parent="node_root_U53" vertex="1">
                    <mxGeometry x="130" y="20" width="100" height="160" as="geometry"/>
                </mxCell>
                <mxCell id="4" value="4" style="whiteSpace=wrap;html=1;fillColor=#b0e3e6;strokeColor=#0e8088;fontColor=#000000;ellipse" parent="node_root_U53" vertex="1">
                    <mxGeometry x="302" y="246" width="100" height="120" as="geometry"/>
                </mxCell>
                <mxCell id="5" value="5" style="whiteSpace=wrap;html=1;fillColor=#b0e3e6;strokeColor=#0e8088;fontColor=#000000;ellipse" parent="node_root_U53" vertex="1">
                    <mxGeometry x="250" y="20" width="100" height="160" as="geometry"/>
                </mxCell>
                <mxCell id="6" value="6" style="whiteSpace=wrap;html=1;fillColor=#b0e3e6;strokeColor=#0e8088;fontColor=#000000;ellipse" parent="node_root_U53" vertex="1">
                    <mxGeometry x="422" y="246" width="100" height="120" as="geometry"/>
                </mxCell>
                <mxCell id="7" value="7" style="whiteSpace=wrap;html=1;fillColor=#b0e3e6;strokeColor=#0e8088;fontColor=#000000;ellipse" parent="node_root_U53" vertex="1">
                    <mxGeometry x="370" y="20" width="100" height="160" as="geometry"/>
                </mxCell>
                <mxCell id="8" value="8" style="whiteSpace=wrap;html=1;fillColor=#b0e3e6;strokeColor=#0e8088;fontColor=#000000;ellipse" parent="node_root_U53" vertex="1">
                    <mxGeometry x="542" y="246" width="100" height="120" as="geometry"/>
                </mxCell>
                <mxCell id="9" value="9" style="whiteSpace=wrap;html=1;fillColor=#b0e3e6;strokeColor=#0e8088;fontColor=#000000;ellipse" parent="node_root_U53" vertex="1">
                    <mxGeometry x="490" y="20" width="100" height="160" as="geometry"/>
                </mxCell>
                <mxCell id="10" value="10" style="whiteSpace=wrap;html=1;fillColor=#b0e3e6;strokeColor=#0e8088;fontColor=#000000;ellipse" parent="node_root_U53" vertex="1">
                    <mxGeometry x="662" y="246" width="100" height="120" as="geometry"/>
                </mxCell>
                <mxCell id="11" value="11" style="whiteSpace=wrap;html=1;fillColor=#b0e3e6;strokeColor=#0e8088;fontColor=#000000;ellipse" parent="node_root_U53" vertex="1">
                    <mxGeometry x="610" y="20" width="100" height="160" as="geometry"/>
                </mxCell>
                <mxCell id="12" value="12" style="whiteSpace=wrap;html=1;fillColor=#b0e3e6;strokeColor=#0e8088;fontColor=#000000;ellipse" parent="node_root_U53" vertex="1">
                    <mxGeometry x="782" y="246" width="100" height="120" as="geometry"/>
                </mxCell>
                <mxCell id="13" value="13" style="whiteSpace=wrap;html=1;fillColor=#b0e3e6;strokeColor=#0e8088;fontColor=#000000;ellipse" parent="node_root_U53" vertex="1">
                    <mxGeometry x="730" y="20" width="100" height="160" as="geometry"/>
                </mxCell>
                <mxCell id="14" value="14" style="whiteSpace=wrap;html=1;fillColor=#b0e3e6;strokeColor=#0e8088;fontColor=#000000;ellipse" parent="node_root_U53" vertex="1">
                    <mxGeometry x="902" y="246" width="100" height="120" as="geometry"/>
                </mxCell>
                <mxCell id="15" value="15" style="whiteSpace=wrap;html=1;fillColor=#b0e3e6;strokeColor=#0e8088;fontColor=#000000;ellipse" parent="node_root_U53" vertex="1">
                    <mxGeometry x="850" y="20" width="100" height="160" as="geometry"/>
                </mxCell>
                <mxCell id="16" value="16" style="whiteSpace=wrap;html=1;fillColor=#b0e3e6;strokeColor=#0e8088;fontColor=#000000;ellipse" parent="node_root_U53" vertex="1">
                    <mxGeometry x="1022" y="246" width="100" height="120" as="geometry"/>
                </mxCell>
                <mxCell id="17" value="17" style="whiteSpace=wrap;html=1;fillColor=#b0e3e6;strokeColor=#0e8088;fontColor=#000000;ellipse" parent="node_root_U53" vertex="1">
                    <mxGeometry x="970" y="20" width="100" height="160" as="geometry"/>
                </mxCell>
                <mxCell id="18" value="18" style="whiteSpace=wrap;html=1;fillColor=#b0e3e6;strokeColor=#0e8088;fontColor=#000000;ellipse" parent="node_root_U53" vertex="1">
                    <mxGeometry x="1142" y="246" width="100" height="120" as="geometry"/>
                </mxCell>
                <mxCell id="19" value="19" style="whiteSpace=wrap;html=1;fillColor=#b0e3e6;strokeColor=#0e8088;fontColor=#000000;ellipse" parent="node_root_U53" vertex="1">
                    <mxGeometry x="1090" y="20" width="100" height="160" as="geometry"/>
                </mxCell>
                <mxCell id="20" value="20" style="whiteSpace=wrap;html=1;fillColor=#b0e3e6;strokeColor=#0e8088;fontColor=#000000;ellipse" parent="node_root_U53" vertex="1">
                    <mxGeometry x="1262" y="246" width="100" height="120" as="geometry"/>
                </mxCell>
                <mxCell id="U53-22" value="" style="whiteSpace=wrap;html=1;fillColor=#b0e3e6;strokeColor=#0e8088;dashed=1;fixDash=1;exitX=1;exitY=1;exitDx=0;exitDy=0;entryX=0;entryY=0;entryDx=0;entryDy=0;edgeStyle=none" parent="node_root_U53" source="1" target="2" edge="1">
                    <mxGeometry relative="1" as="geometry"/>
                </mxCell>
                <mxCell id="U53-23" value="" style="whiteSpace=wrap;html=1;fillColor=#b0e3e6;strokeColor=#0e8088;dashed=1;fixDash=1;exitX=1;exitY=1;exitDx=0;exitDy=0;entryX=0;entryY=0;entryDx=0;entryDy=0;edgeStyle=none" parent="node_root_U53" source="3" target="4" edge="1">
                    <mxGeometry relative="1" as="geometry"/>
                </mxCell>
                <mxCell id="U53-24" value="" style="whiteSpace=wrap;html=1;fillColor=#b0e3e6;strokeColor=#0e8088;dashed=1;fixDash=1;exitX=1;exitY=1;exitDx=0;exitDy=0;entryX=0;entryY=0;entryDx=0;entryDy=0;edgeStyle=none" parent="node_root_U53" source="5" target="6" edge="1">
                    <mxGeometry relative="1" as="geometry"/>
                </mxCell>
                <mxCell id="U53-25" value="" style="whiteSpace=wrap;html=1;fillColor=#b0e3e6;strokeColor=#0e8088;dashed=1;fixDash=1;exitX=1;exitY=1;exitDx=0;exitDy=0;entryX=0;entryY=0;entryDx=0;entryDy=0;edgeStyle=none" parent="node_root_U53" source="7" target="8" edge="1">
                    <mxGeometry relative="1" as="geometry"/>
                </mxCell>
                <mxCell id="U53-26" value="" style="whiteSpace=wrap;html=1;fillColor=#b0e3e6;strokeColor=#0e8088;dashed=1;fixDash=1;exitX=1;exitY=1;exitDx=0;exitDy=0;entryX=0;entryY=0;entryDx=0;entryDy=0;edgeStyle=none" parent="node_root_U53" source="9" target="10" edge="1">
                    <mxGeometry relative="1" as="geometry"/>
                </mxCell>
                <mxCell id="U53-27" value="" style="whiteSpace=wrap;html=1;fillColor=#b0e3e6;strokeColor=#0e8088;dashed=1;fixDash=1;exitX=1;exitY=1;exitDx=0;exitDy=0;entryX=0;entryY=0;entryDx=0;entryDy=0;edgeStyle=none" parent="node_root_U53" source="11" target="12" edge="1">
                    <mxGeometry relative="1" as="geometry"/>
                </mxCell>
                <mxCell id="U53-28" value="" style="whiteSpace=wrap;html=1;fillColor=#b0e3e6;strokeColor=#0e8088;dashed=1;fixDash=1;exitX=1;exitY=1;exitDx=0;exitDy=0;entryX=0;entryY=0;entryDx=0;entryDy=0;edgeStyle=none" parent="node_root_U53" source="13" target="14" edge="1">
                    <mxGeometry relative="1" as="geometry"/>
                </mxCell>
                <mxCell id="U53-29" value="" style="whiteSpace=wrap;html=1;fillColor=#b0e3e6;strokeColor=#0e8088;dashed=1;fixDash=1;exitX=1;exitY=1;exitDx=0;exitDy=0;entryX=0;entryY=0;entryDx=0;entryDy=0;edgeStyle=none" parent="node_root_U53" source="15" target="16" edge="1">
                    <mxGeometry relative="1" as="geometry"/>
                </mxCell>
                <mxCell id="U53-30" value="" style="whiteSpace=wrap;html=1;fillColor=#b0e3e6;strokeColor=#0e8088;dashed=1;fixDash=1;exitX=1;exitY=1;exitDx=0;exitDy=0;entryX=0;entryY=0;entryDx=0;entryDy=0;edgeStyle=none" parent="node_root_U53" source="17" target="18" edge="1">
                    <mxGeometry relative="1" as="geometry"/>
                </mxCell>
                <mxCell id="U53-31" value="" style="whiteSpace=wrap;html=1;fillColor=#b0e3e6;strokeColor=#0e8088;dashed=1;fixDash=1;exitX=1;exitY=1;exitDx=0;exitDy=0;entryX=0;entryY=0;entryDx=0;entryDy=0;edgeStyle=none" parent="node_root_U53" source="19" target="20" edge="1">
                    <mxGeometry relative="1" as="geometry"/>
                </mxCell>
            </root>
        </mxGraphModel>
    </diagram>
</mxfile>